<?xml version="1.0" encoding="utf-8"?>
<!-- Generator: Adobe Illustrator 15.0.0, SVG Export Plug-In . SVG Version: 6.00 Build 0)  -->
<!DOCTYPE svg PUBLIC "-//W3C//DTD SVG 1.1//EN" "http://www.w3.org/Graphics/SVG/1.1/DTD/svg11.dtd">
<svg version="1.1" id="Layer_1" xmlns="http://www.w3.org/2000/svg" xmlns:xlink="http://www.w3.org/1999/xlink" x="0px" y="0px"
	 width="203.386px" height="65.199px" viewBox="63.307 9.719 203.386 65.199" enable-background="new 63.307 9.719 203.386 65.199"
	 xml:space="preserve">
<g>
	<g>
		<polygon points="77.431,21.951 132.139,21.951 155.657,42.318 132.139,62.686 124.467,62.686 137.646,74.099 174.343,42.318 
			136.7,9.719 63.307,9.719 		"/>
		<g>
			<g>
				<polygon points="192.354,10.538 169.672,30.182 178.348,37.695 179.016,38.273 197.861,21.95 205.533,21.95 				"/>
			</g>
			<g>
				<polygon points="252.57,62.686 197.861,62.686 179.016,46.364 178.348,46.942 169.672,54.455 193.3,74.918 266.693,74.918 				
					"/>
			</g>
		</g>
	</g>
</g>
<g id="grid">
	<g id="guides2">
	</g>
	<g id="guides1">
	</g>
	<g id="bars" display="none" opacity="0.01">
		<g display="inline">
			<rect x="10.5" y="-92.472" width="14" height="3000"/>
			<rect x="62.5" y="-92.472" width="14" height="3000"/>
			<rect x="24.5" y="-92.472" fill="#999999" width="38" height="3000"/>
		</g>
		<g display="inline">
			<rect x="91.5" y="-92.472" width="14" height="3000"/>
			<rect x="143.5" y="-92.472" width="14" height="3000"/>
			<rect x="105.5" y="-92.472" fill="#999999" width="38" height="3000"/>
		</g>
		<g display="inline">
			<rect x="172.5" y="-92.472" width="14" height="3000"/>
			<rect x="224.5" y="-92.472" width="14" height="3000"/>
			<rect x="186.5" y="-92.472" fill="#999999" width="38" height="3000"/>
		</g>
		<g display="inline">
			<rect x="253.5" y="-92.472" width="14" height="3000"/>
			<rect x="305.5" y="-92.472" width="14" height="3000"/>
			<rect x="267.5" y="-92.472" fill="#999999" width="38" height="3000"/>
		</g>
		<g display="inline">
			<rect x="334.5" y="-92.472" width="14" height="3000"/>
			<rect x="386.5" y="-92.472" width="14" height="3000"/>
			<rect x="348.5" y="-92.472" fill="#999999" width="38" height="3000"/>
		</g>
		<g display="inline">
			<rect x="415.5" y="-92.472" width="14" height="3000"/>
			<rect x="467.5" y="-92.472" width="14" height="3000"/>
			<rect x="429.5" y="-92.472" fill="#999999" width="38" height="3000"/>
		</g>
		<g display="inline">
			<rect x="496.5" y="-92.472" width="14" height="3000"/>
			<rect x="548.5" y="-92.472" width="14" height="3000"/>
			<rect x="510.5" y="-92.472" fill="#999999" width="38" height="3000"/>
		</g>
		<g display="inline">
			<rect x="577.5" y="-92.472" width="14" height="3000"/>
			<rect x="629.5" y="-92.472" width="14" height="3000"/>
			<rect x="591.5" y="-92.472" fill="#999999" width="38" height="3000"/>
		</g>
		<g display="inline">
			<rect x="658.5" y="-92.472" width="14" height="3000"/>
			<rect x="710.5" y="-92.472" width="14" height="3000"/>
			<rect x="672.5" y="-92.472" fill="#999999" width="38" height="3000"/>
		</g>
		<g display="inline">
			<rect x="739.5" y="-92.472" width="14" height="3000"/>
			<rect x="791.5" y="-92.472" width="14" height="3000"/>
			<rect x="753.5" y="-92.472" fill="#999999" width="38" height="3000"/>
		</g>
		<g display="inline">
			<rect x="820.5" y="-92.472" width="14" height="3000"/>
			<rect x="872.5" y="-92.472" width="14" height="3000"/>
			<rect x="834.5" y="-92.472" fill="#999999" width="38" height="3000"/>
		</g>
		<g display="inline">
			<rect x="901.5" y="-92.472" width="14" height="3000"/>
			<rect x="953.5" y="-92.472" width="14" height="3000"/>
			<rect x="915.5" y="-92.472" fill="#999999" width="38" height="3000"/>
		</g>
	</g>
</g>
</svg>
