<?xml version="1.0" encoding="utf-8"?>
<!-- Generator: Adobe Illustrator 15.0.0, SVG Export Plug-In . SVG Version: 6.00 Build 0)  -->
<!DOCTYPE svg PUBLIC "-//W3C//DTD SVG 1.1//EN" "http://www.w3.org/Graphics/SVG/1.1/DTD/svg11.dtd">
<svg version="1.1" id="Layer_1" xmlns="http://www.w3.org/2000/svg" xmlns:xlink="http://www.w3.org/1999/xlink" x="0px" y="0px"
	 width="300px" height="300px" viewBox="0 0 300 300" enable-background="new 0 0 300 300" xml:space="preserve">
<rect fill="none" width="300" height="300"/>
<g id="UI_1_">
	<path fill="#FFFFFF" d="M16.847,90v200H170.54v-10H26.847V120h246.668v160h-10v10h20V90H16.847z M34.347,112.5
		c-4.143,0-7.5-3.357-7.5-7.5c0-4.143,3.357-7.5,7.5-7.5s7.5,3.357,7.5,7.5C41.847,109.143,38.489,112.5,34.347,112.5z
		 M54.347,112.5c-4.143,0-7.5-3.357-7.5-7.5c0-4.143,3.357-7.5,7.5-7.5s7.5,3.357,7.5,7.5C61.847,109.143,58.489,112.5,54.347,112.5
		z M74.347,112.5c-4.143,0-7.5-3.357-7.5-7.5c0-4.143,3.357-7.5,7.5-7.5s7.5,3.357,7.5,7.5
		C81.847,109.143,78.489,112.5,74.347,112.5z"/>
	<g>
		<path fill="#FFFFFF" d="M180.54,157.988V300h72.976V157.988H180.54z M217.027,295c-4.145,0-7.5-3.357-7.5-7.5s3.355-7.5,7.5-7.5
			c4.143,0,7.5,3.357,7.5,7.5S221.17,295,217.027,295z M248.516,275H185.54V162.988h62.976V275L248.516,275z"/>
	</g>
</g>
</svg>
