<?xml version="1.0" encoding="utf-8"?>
<!-- Generator: Adobe Illustrator 15.0.0, SVG Export Plug-In . SVG Version: 6.00 Build 0)  -->
<!DOCTYPE svg PUBLIC "-//W3C//DTD SVG 1.1//EN" "http://www.w3.org/Graphics/SVG/1.1/DTD/svg11.dtd">
<svg version="1.1" id="Layer_1" xmlns="http://www.w3.org/2000/svg" xmlns:xlink="http://www.w3.org/1999/xlink" x="0px" y="0px"
	 width="300px" height="300px" viewBox="0 0 300 300" enable-background="new 0 0 300 300" xml:space="preserve">
<rect fill="none" width="300" height="300"/>
<g id="Print_1_">
	<g>
		<rect x="73.053" y="224.428" fill="#FFFFFF" width="45.496" height="10"/>
		<rect x="73.053" y="238.5" fill="#FFFFFF" width="45.496" height="10"/>
		<rect x="73.053" y="252.57" fill="#FFFFFF" width="45.496" height="10"/>
	</g>
	<path fill="#FFFFFF" d="M192.301,160.488v15.016h-33.767V300h54.44v-15.016h33.766V160.488H192.301z M204.467,175.504h-7.166
		v-5.205L204.467,175.504z M207.975,295h-44.438V180.504h44.438V295z M241.74,279.984h-28.766v-104.48l-13.789-10.016h42.555
		V279.984L241.74,279.984z"/>
	<polygon fill="#FFFFFF" points="148.534,274.992 62.911,274.992 62.911,47.594 202.992,47.594 202.992,150.489 212.992,150.489 
		212.992,37.594 52.911,37.594 52.911,284.992 148.534,284.992 	"/>
</g>
</svg>
