<?xml version="1.0" encoding="utf-8"?>
<!-- Generator: Adobe Illustrator 15.0.0, SVG Export Plug-In . SVG Version: 6.00 Build 0)  -->
<!DOCTYPE svg PUBLIC "-//W3C//DTD SVG 1.1//EN" "http://www.w3.org/Graphics/SVG/1.1/DTD/svg11.dtd">
<svg version="1.1" id="Layer_1" xmlns="http://www.w3.org/2000/svg" xmlns:xlink="http://www.w3.org/1999/xlink" x="0px" y="0px"
	 width="300px" height="300px" viewBox="0 0 300 300" enable-background="new 0 0 300 300" xml:space="preserve">
<rect fill="none" width="300" height="300"/>
<g>
	<g>
		<path fill="#FFFFFF" d="M113.686,203.615h12.86l71.449-71.449l13.485,13.486l-57.963,57.963h14.143l57.963-57.963l27.629-27.629
			l-27.629-27.629l-27.627,27.629l-85.593,85.592H113.686z M225.623,104.537l13.486,13.487l-13.486,13.486l-13.484-13.486
			L225.623,104.537z"/>
		<path fill="#FFFFFF" d="M103.686,253.447l-11.183,11.184l-13.485-13.487l24.668-24.668v-12.86v-1.281l-38.811,38.811
			L54.613,275.22L43.645,300l24.782-10.967l24.075-10.262l11.183-11.184L103.686,253.447L103.686,253.447z M64.381,279.888
			l-1.118,0.495l0.495-1.117l5.064-11.444l3.503,3.502l3.5,3.5L64.381,279.888z"/>
	</g>
	<g>
		<path fill="#FFFFFF" d="M244.354,213.615v-14h-28v14H113.686v84h140v-84H244.354z M221.354,204.615h18v17.999h-18V204.615z
			 M211.686,255.614c0,15.464-12.535,28.001-27.998,28.001c-15.465,0-28.002-12.537-28.002-28.001c0-15.462,12.537-28,28.002-28
			S211.686,240.152,211.686,255.614z"/>
	</g>
</g>
</svg>
