<?xml version="1.0" encoding="utf-8"?>
<!-- Generator: Adobe Illustrator 15.0.0, SVG Export Plug-In . SVG Version: 6.00 Build 0)  -->
<!DOCTYPE svg PUBLIC "-//W3C//DTD SVG 1.1//EN" "http://www.w3.org/Graphics/SVG/1.1/DTD/svg11.dtd">
<svg version="1.1" id="Layer_1" xmlns="http://www.w3.org/2000/svg" xmlns:xlink="http://www.w3.org/1999/xlink" x="0px" y="0px"
	 width="300px" height="300px" viewBox="0 0 300 300" enable-background="new 0 0 300 300" xml:space="preserve">
<g>
	<rect x="98" y="195" fill="#FFFFFF" width="68" height="4"/>
	<rect x="98" y="174" fill="#FFFFFF" width="68" height="5"/>
	<rect x="98" y="153" fill="#FFFFFF" width="68" height="4"/>
	<rect x="98" y="132" fill="#FFFFFF" width="68" height="4"/>
	<rect x="98" y="111" fill="#FFFFFF" width="68" height="4"/>
	<polygon fill="#FFFFFF" points="116.376,90 120.776,90 124.14,78.75 161.768,90 176.484,90 121.308,73.505 	"/>
	<path fill="#FFFFFF" d="M218.873,102.304L182,91.313V90h-5.363l-0.152-0.045L176.514,90H81v130h76.532l23.372,7.229
		L218.873,102.304z M214.077,105.148l-31.273,104.944l-0.804,2.4v-50.727l0.957,0.341l1.304-4.042L182,157.36v-17.597l6.992,2.146
		l1.304-4.038L182,135.363v-17.896l13.475,4.248l1.53-4.038L182,113.078V95.639L214.077,105.148z M86,94h92v122H86V94z M172.249,220
		h6.372l-0.643,1.713L172.249,220z"/>
</g>
</svg>
